<svg width="24" height="24" viewBox="0 0 24 24" fill="none" xmlns="http://www.w3.org/2000/svg">
<path d="M19.5245 11.3466L12.2963 18.5748C11.4108 19.4603 10.2246 19.9726 8.99864 19.9989C7.77271 20.0253 6.60747 19.5636 5.75925 18.7154C4.91103 17.8671 4.44931 16.7019 4.47568 15.476C4.50205 14.25 5.01433 13.0638 5.89984 12.1783L13.128 4.95015C13.7184 4.35981 14.5092 4.01829 15.3264 4.00071C16.1437 3.98314 16.9206 4.29094 17.486 4.85642C18.0515 5.4219 18.3593 6.19873 18.3418 7.01602C18.3242 7.83331 17.9827 8.6241 17.3923 9.21444L10.1564 16.4428C9.86126 16.738 9.46586 16.9087 9.05722 16.9175C8.64857 16.9263 8.26016 16.7724 7.97742 16.4897C7.69468 16.2069 7.54077 15.8185 7.54956 15.4099C7.55835 15.0012 7.72911 14.6058 8.02428 14.3106L14.7017 7.64073" stroke="white" stroke-linejoin="round"/>
</svg>
