<svg width="98" height="20" viewBox="0 0 98 20" fill="none" xmlns="http://www.w3.org/2000/svg">
<path d="M19.2961 20H14.0605L12.6302 16.3612H6.531L5.2086 20H0L7.42159 0H11.6586L19.2961 20ZM9.63457 5.84906L7.8264 12.0485H11.3348L9.63457 5.84906Z" fill="white"/>
<path d="M20.7963 0H25.6V20H20.7963V0Z" fill="white"/>
<path d="M88.6973 19.6237V5.65551H93.4075V8.28364H93.5527C94.0609 6.34665 95.2407 5.47363 96.7382 5.47363C97.1647 5.47363 97.6095 5.53729 97.9997 5.64642V9.82051C97.5187 9.65682 96.7019 9.57497 96.1755 9.57497C94.669 9.57497 93.5527 10.6481 93.5527 12.2577V19.6237H88.6973Z" fill="white"/>
<path d="M32 0H46.8498V4.31909H41.6983V19.5412H37.02V4.31909H32V0Z" fill="white"/>
<path d="M60.0936 5.05649V19.5412H55.4941V18.6985C54.8371 19.2515 53.6806 19.7783 52.419 19.8836H52.0774C48.5555 19.8836 47.0048 17.645 47.0048 14.1687V5.05649H51.6043V12.1935C51.6043 14.8534 52.3928 15.4592 53.4441 15.4328C54.364 15.4065 54.9422 15.1431 55.4941 14.5374V5.05649H60.0936Z" fill="white"/>
<path d="M68.3491 13.4576C68.3491 14.5637 68.4805 15.0905 69.0587 15.3011C69.453 15.4328 69.7946 15.4065 70.6357 15.1168L71.3979 19.1462C70.0312 19.7783 67.8234 20.0153 66.2727 19.4095C64.4592 18.6721 63.8022 17.0657 63.8022 14.3004V9.16489H61.4367V5.05649H63.8022V0H68.3491V5.05649H71.2928V9.16489H68.3491V13.4576Z" fill="white"/>
<path d="M85.4731 7.84077C82.81 4.89149 78.2652 4.66377 75.3218 7.33215C72.3785 10.0006 72.1512 14.5546 74.8142 17.5039L73.0625 19.2592C72.9951 19.3267 72.9572 19.4183 72.9572 19.5137C72.9572 19.7126 73.1181 19.8738 73.3165 19.8738L80.1439 19.8739C81.9258 19.8738 83.6442 19.2104 84.9655 18.0125C87.9089 15.3441 88.1361 10.7901 85.4731 7.84077Z" fill="#06CC80"/>
</svg>
